<?xml version="1.0" encoding="UTF-8"?>
<svg id="Calque_2" data-name="Calque 2" xmlns="http://www.w3.org/2000/svg" viewBox="0 0 146.93 160.56">
  <defs>
    <style>
      .cls-1 {
        fill: none;
        stroke: #1d1d1b;
        stroke-miterlimit: 10;
      }

      .cls-2 {
        fill: #1d1d1b;
      }
    </style>
  </defs>
  <g id="Calque_3" data-name="Calque 3">
    <g>
      <g>
        <path class="cls-2" d="M146.42,40.45l-.77,78.89-67.66,40.09V.87l68.43,39.58Zm-8.73,74.73v-15.07h-11.15v8.6l-28.51,16.34v-39.32h20.09v-11.74h-19.66V35.56l27.83,16.38s.27,8.66,.17,8.77l10.98,.08v-15.66l-50.39-28.93v127.57l50.64-28.59Z"/>
        <path class="cls-2" d="M68.93,1.13V159.69L1.27,119.6,.5,40.71,68.93,1.13Zm-8.56,142.6l-.13-127.28L9.95,45.31l-.26,69.57,10.6,6.51V51.69l9.06-5.49V127.01l10.98,5.87V40.07l9.06-5.23v103.27l10.98,5.62Z"/>
      </g>
      <g>
        <polygon class="cls-1" points="68.93 159.69 68.93 1.13 .5 40.71 1.27 119.6 68.93 159.69"/>
        <polygon class="cls-1" points="77.99 159.43 77.99 .87 146.42 40.45 145.65 119.34 77.99 159.43"/>
        <polygon class="cls-1" points="9.95 45.31 60.24 16.45 60.37 143.73 49.39 138.11 49.39 34.84 40.33 40.07 40.33 132.88 29.35 127.01 29.35 46.2 20.29 51.69 20.29 121.39 9.69 114.88 9.95 45.31"/>
        <path class="cls-1" d="M126.46,60.71l10.98,.08v-15.66l-50.39-28.93v127.57l50.64-28.59v-15.07h-11.15v8.6l-28.51,16.34v-39.32h20.09v-11.74h-19.66V35.56l27.83,16.38s.27,8.66,.17,8.77Z"/>
      </g>
    </g>
  </g>
</svg>